<svg xmlns="http://www.w3.org/2000/svg" viewBox="0 0 1200 560" width="100%" height="100%">
  <defs>
    <linearGradient id="bg" x1="0%" y1="0%" x2="100%" y2="100%">
      <stop offset="0%" stop-color="#050811"/>
      <stop offset="50%" stop-color="#0b1329"/>
      <stop offset="100%" stop-color="#030712"/>
    </linearGradient>
    <pattern id="grid" width="40" height="40" patternUnits="userSpaceOnUse">
      <path d="M 40 0 L 0 0 0 40" fill="none" stroke="#1e293b" stroke-width="0.75" stroke-opacity="0.3"/>
    </pattern>
  </defs>

  <style>
    @keyframes pulse {
      0%, 100% { opacity: 0.8; transform: scale(1); }
      50% { opacity: 1; transform: scale(1.05); }
    }
    @keyframes scan {
      0% { transform: translateY(0); opacity: 0.8; }
      100% { transform: translateY(180px); opacity: 0; }
    }
    @keyframes spin {
      0% { transform: rotate(0deg); }
      100% { transform: rotate(360deg); }
    }
    .grid-bg { fill: url(#grid); }
    .pulse-elem { animation: pulse 2.5s ease-in-out infinite; }
  </style>

  <rect width="1200" height="560" rx="16" fill="url(#bg)" stroke="#1e293b" stroke-width="1.5"/>
  <rect width="1200" height="560" rx="16" class="grid-bg" />

  <!-- Top Badge -->
  <g transform="translate(60, 45)">
    <rect width="200" height="26" rx="13" fill="#0f172a" stroke="#a855f7" stroke-width="1"/>
    <circle cx="15" cy="13" r="4" fill="#a855f7" />
    <text x="28" y="17" fill="#a855f7" font-family="monospace" font-size="11" font-weight="700">AI NEWS &amp; AUDIO</text>
  </g>

  <!-- Left Column: Project Identity & Specs -->
  <g transform="translate(60, 115)">
    <text x="0" y="38" fill="#f8fafc" font-family="-apple-system, BlinkMacSystemFont, sans-serif" font-size="40" font-weight="800" letter-spacing="-1">Hype-NEWS</text>
    <text x="0" y="74" fill="#94a3b8" font-family="-apple-system, BlinkMacSystemFont, sans-serif" font-size="15">AI-Powered News Curation, Groq LLM &amp; Edge-TTS Audio Station</text>

    <!-- Stack Chips -->
    <g transform="translate(0, 100)">
      
        <rect x="0" y="0" width="96" height="30" rx="6" fill="#0f172a" stroke="#1e293b"/>
        <text x="48" y="19" text-anchor="middle" fill="#38bdf8" font-family="monospace" font-size="12" font-weight="600">React 19</text>
        
        <rect x="108" y="0" width="87" height="30" rx="6" fill="#0f172a" stroke="#1e293b"/>
        <text x="151" y="19" text-anchor="middle" fill="#a855f7" font-family="monospace" font-size="12" font-weight="600">FastAPI</text>
        
        <rect x="207" y="0" width="132" height="30" rx="6" fill="#0f172a" stroke="#1e293b"/>
        <text x="273" y="19" text-anchor="middle" fill="#10b981" font-family="monospace" font-size="12" font-weight="600">Groq LLaMA 3</text>
        
        <rect x="351" y="0" width="96" height="30" rx="6" fill="#0f172a" stroke="#1e293b"/>
        <text x="399" y="19" text-anchor="middle" fill="#f59e0b" font-family="monospace" font-size="12" font-weight="600">Edge-TTS</text>
        
    </g>

    <!-- Metrics Cards -->
    <g transform="translate(0, 160)">
      
        <g transform="translate(0, 0)">
          <rect width="145" height="60" rx="8" fill="#0f172a" stroke="#1e293b"/>
          <text x="14" y="24" fill="#64748b" font-family="monospace" font-size="10">SCRAPER</text>
          <text x="14" y="48" fill="#a855f7" font-family="-apple-system, sans-serif" font-size="14" font-weight="700">Real-Time RSS</text>
        </g>
        
        <g transform="translate(155, 0)">
          <rect width="145" height="60" rx="8" fill="#0f172a" stroke="#1e293b"/>
          <text x="14" y="24" fill="#64748b" font-family="monospace" font-size="10">AUDIO</text>
          <text x="14" y="48" fill="#ec4899" font-family="-apple-system, sans-serif" font-size="14" font-weight="700">Edge-TTS Synth</text>
        </g>
        
        <g transform="translate(310, 0)">
          <rect width="145" height="60" rx="8" fill="#0f172a" stroke="#1e293b"/>
          <text x="14" y="24" fill="#64748b" font-family="monospace" font-size="10">LLM ENGINE</text>
          <text x="14" y="48" fill="#06b6d4" font-family="-apple-system, sans-serif" font-size="14" font-weight="700">Groq LLaMA 3</text>
        </g>
        
    </g>

    <!-- Detailed Highlights -->
    <g transform="translate(0, 255)">
      <text x="0" y="0" fill="#a855f7" font-family="monospace" font-size="11" font-weight="700">CORE SYSTEM ARCHITECTURE:</text>
      
        <text x="0" y="22" fill="#cbd5e1" font-family="-apple-system, sans-serif" font-size="12">● Continuous automated ingestion across global and local te...</text>
        
        <text x="0" y="42" fill="#cbd5e1" font-family="-apple-system, sans-serif" font-size="12">● High-speed editorial summarization via Groq hardware-acce...</text>
        
        <text x="0" y="62" fill="#cbd5e1" font-family="-apple-system, sans-serif" font-size="12">● Synthesized voiceover audio briefings rendered in interac...</text>
        
    </g>
  </g>

  <!-- Right Column: Bespoke Visual Representation -->
  <g transform="translate(680, 50)">
    
        <g transform="translate(30, 30)">
          <!-- Equalizer Spectrum -->
          <rect width="380" height="100" rx="8" fill="#160829" stroke="#3b0764" stroke-width="1.5"/>
          <text x="15" y="26" fill="#a855f7" font-family="monospace" font-size="10" font-weight="700">EDGE-TTS SPEECH SPECTRUM // 94.2 MHz</text>
          
          <g transform="translate(20, 80)">
            <rect x="0" y="-15" width="8" height="15" rx="2" fill="#c084fc"/>
            <rect x="15" y="-28" width="8" height="28" rx="2" fill="#ec4899"/>
            <rect x="30" y="-12" width="8" height="12" rx="2" fill="#06b6d4"/>
            <rect x="45" y="-34" width="8" height="34" rx="2" fill="#a855f7"/>
            <rect x="60" y="-22" width="8" height="22" rx="2" fill="#ec4899"/>
            <rect x="75" y="-16" width="8" height="16" rx="2" fill="#06b6d4"/>
            <rect x="90" y="-30" width="8" height="30" rx="2" fill="#c084fc"/>
            <rect x="105" y="-20" width="8" height="20" rx="2" fill="#ec4899"/>
            <rect x="120" y="-38" width="8" height="38" rx="2" fill="#06b6d4"/>
            <rect x="135" y="-18" width="8" height="18" rx="2" fill="#a855f7"/>
            <rect x="150" y="-28" width="8" height="28" rx="2" fill="#c084fc"/>
            <rect x="165" y="-14" width="8" height="14" rx="2" fill="#ec4899"/>
            <rect x="180" y="-32" width="8" height="32" rx="2" fill="#06b6d4"/>
            <rect x="195" y="-24" width="8" height="24" rx="2" fill="#a855f7"/>
            <rect x="210" y="-35" width="8" height="35" rx="2" fill="#ec4899"/>
            <rect x="225" y="-16" width="8" height="16" rx="2" fill="#06b6d4"/>
            <rect x="240" y="-28" width="8" height="28" rx="2" fill="#c084fc"/>
          </g>

          <g transform="translate(0, 115)">
            <rect width="380" height="85" rx="8" fill="#1e0b38" stroke="#a855f7" stroke-width="1"/>
            <circle cx="20" cy="20" r="5" fill="#10b981"/>
            <text x="32" y="24" fill="#ec4899" font-family="monospace" font-size="10" font-weight="700">GROQ SUMMARY // 1.2s</text>
            <text x="20" y="48" fill="#f1f5f9" font-family="sans-serif" font-size="12" font-weight="600">Autonomous AI agents integrate deeply into native OS</text>
            <text x="20" y="66" fill="#94a3b8" font-family="sans-serif" font-size="10">Synthesized from 4 tech journals into 30-sec audio briefing.</text>
          </g>

          <g transform="translate(0, 215)">
            <rect width="380" height="75" rx="8" fill="#160829" stroke="#3b0764" stroke-width="1"/>
            <circle cx="20" cy="20" r="5" fill="#06b6d4"/>
            <text x="32" y="24" fill="#06b6d4" font-family="monospace" font-size="10" font-weight="700">STREAM QUEUED</text>
            <text x="20" y="48" fill="#f1f5f9" font-family="sans-serif" font-size="12" font-weight="600">Next-gen WebXR spatial computing standards published</text>
          </g>
        </g>
        
  </g>

  <!-- Bottom Bar -->
  <g transform="translate(60, 515)">
    <line x1="0" y1="0" x2="1080" y2="0" stroke="#1e293b" stroke-width="1"/>
    <text x="0" y="22" fill="#64748b" font-family="monospace" font-size="11">REPOSITORY: Alttrest/Hype-NEWS</text>
    <text x="400" y="22" fill="#64748b" font-family="monospace" font-size="11">MAINTAINER: Ali Turan (@Alttrest)</text>
    <text x="960" y="22" fill="#a855f7" font-family="monospace" font-size="11">● PRODUCTION VERIFIED</text>
  </g>
</svg>